<svg xmlns="http://www.w3.org/2000/svg" viewBox="0 0 512 512">
  <defs>
    <linearGradient id="bg" x1="0" y1="0" x2="1" y2="1">
      <stop offset="0%" stop-color="#DC2626"/>
      <stop offset="100%" stop-color="#B91C1C"/>
    </linearGradient>
  </defs>
  <!-- Background circle -->
  <circle cx="256" cy="256" r="256" fill="url(#bg)"/>
  <!-- Fork -->
  <g transform="translate(256,260) rotate(-15)" fill="none" stroke="#FFF" stroke-width="16" stroke-linecap="round" stroke-linejoin="round">
    <!-- Handle -->
    <line x1="0" y1="40" x2="0" y2="150"/>
    <!-- Head -->
    <path d="M-36,-60 C-36,-10 -24,30 0,40 24,30 36,-10 36,-60"/>
    <!-- Tines -->
    <line x1="-24" y1="-60" x2="-24" y2="0"/>
    <line x1="0" y1="-60" x2="0" y2="10"/>
    <line x1="24" y1="-60" x2="24" y2="0"/>
  </g>
  <!-- Steam wisps -->
  <g fill="none" stroke="#FFF" stroke-width="8" stroke-linecap="round" opacity="0.6">
    <path d="M200,-10 C195,-30 205,-50 200,-70" transform="translate(0,100)"/>
    <path d="M256,-10 C251,-35 261,-55 256,-80" transform="translate(0,90)"/>
    <path d="M312,-10 C307,-30 317,-50 312,-70" transform="translate(0,100)"/>
  </g>
</svg>
